<svg xmlns="http://www.w3.org/2000/svg" viewBox="0 0 128 128">
    <defs>
        <linearGradient id="avGradient" x1="0%" y1="0%" x2="100%" y2="100%">
            <stop offset="0%" style="stop-color:#FF3CAC"/>
            <stop offset="100%" style="stop-color:#784BA0"/>
        </linearGradient>
    </defs>

    <path fill="url(#avGradient)" d="M50.4 78.5a75.1 75.1 0 0 0-28.5 6.9l24.2-65.7c.7-2 1.9-3.2 3.4-3.2h29c1.5 0 2.7 1.2 3.4 3.2l24.2 65.7s-11.6-7-28.5-7L67 45.5c-.4-1.7-1.6-2.8-2.9-2.8-1.3 0-2.5 1.1-2.9 2.7L50.4 78.5Zm-1.1 28.2Zm-4.2-20.2c-2 6.6-.6 15.8 4.2 20.2a17.5 17.5 0 0 1 .2-.7 5.5 5.5 0 0 1 5.7-4.5c2.8.1 4.3 1.5 4.7 4.7.2 1.1.2 2.3.2 3.5v.4c0 2.7.7 5.2 2.2 7.4a13 13 0 0 0 5.7 4.9v-.3l-.2-.3c-1.8-5.6-.5-9.5 4.4-12.8l1.5-1a73 73 0 0 0 3.2-2.2 16 16 0 0 0 6.8-11.4c.3-2 .1-4-.6-6l-.8.6-1.6 1a37 37 0 0 1-22.4 2.7c-5-.7-9.7-2-13.2-6.2Z" />

    <path fill="#000000" d="M64,78 C64,78 56.5,64 56.5,61 C56.5,58 59.5,56 62,58.5 C63,59.5 64,62 64,62 C64,62 65,59.5 66,58.5 C68.5,56 71.5,58 71.5,61 C71.5,64 64,78 64,78 Z M62.8,64 C62.8,64 64,67 64,67 C64,67 65.2,64 65.2,64 C66.5,62 68,61.5 68.5,62 C69,62.5 68.5,64 67.5,65.5 C66,68 64,71.5 64,71.5 C64,71.5 62,68 60.5,65.5 C59.5,64 59,62.5 59.5,62 C60,61.5 61.5,62 62.8,64 Z"/>
</svg>
